<mxfile host="app.diagrams.net" agent="Mozilla/5.0 (Macintosh; Intel Mac OS X 10_15_7) AppleWebKit/537.36 (KHTML, like Gecko) Chrome/131.0.0.0 Safari/537.36 Edg/131.0.0.0" version="24.9.2">
  <diagram id="R2lEEEUBdFMjLlhIrx00" name="Page-1">
    <mxGraphModel dx="1050" dy="579" grid="1" gridSize="10" guides="1" tooltips="1" connect="1" arrows="1" fold="1" page="1" pageScale="1" pageWidth="850" pageHeight="1100" math="0" shadow="0" extFonts="Permanent Marker^https://fonts.googleapis.com/css?family=Permanent+Marker">
      <root>
        <mxCell id="0" />
        <mxCell id="1" parent="0" />
        <mxCell id="HoAKC4LdOyhYHKw9ibHR-8" style="rounded=0;orthogonalLoop=1;jettySize=auto;html=1;exitX=0.25;exitY=0;exitDx=0;exitDy=0;entryX=0.5;entryY=1;entryDx=0;entryDy=0;endArrow=none;endFill=0;" edge="1" parent="1" source="HoAKC4LdOyhYHKw9ibHR-2" target="HoAKC4LdOyhYHKw9ibHR-6">
          <mxGeometry relative="1" as="geometry" />
        </mxCell>
        <mxCell id="HoAKC4LdOyhYHKw9ibHR-12" style="edgeStyle=none;shape=connector;rounded=0;orthogonalLoop=1;jettySize=auto;html=1;exitX=0.5;exitY=0;exitDx=0;exitDy=0;entryX=0.5;entryY=1;entryDx=0;entryDy=0;strokeColor=default;align=center;verticalAlign=middle;fontFamily=Helvetica;fontSize=11;fontColor=default;labelBackgroundColor=default;endArrow=none;endFill=0;" edge="1" parent="1" source="HoAKC4LdOyhYHKw9ibHR-2" target="HoAKC4LdOyhYHKw9ibHR-11">
          <mxGeometry relative="1" as="geometry" />
        </mxCell>
        <mxCell id="HoAKC4LdOyhYHKw9ibHR-14" style="edgeStyle=none;shape=connector;rounded=0;orthogonalLoop=1;jettySize=auto;html=1;exitX=0.5;exitY=0;exitDx=0;exitDy=0;entryX=0.5;entryY=0;entryDx=0;entryDy=0;strokeColor=default;align=center;verticalAlign=middle;fontFamily=Helvetica;fontSize=11;fontColor=default;labelBackgroundColor=default;endArrow=none;endFill=0;" edge="1" parent="1" source="HoAKC4LdOyhYHKw9ibHR-2" target="HoAKC4LdOyhYHKw9ibHR-13">
          <mxGeometry relative="1" as="geometry" />
        </mxCell>
        <mxCell id="HoAKC4LdOyhYHKw9ibHR-16" style="edgeStyle=none;shape=connector;rounded=0;orthogonalLoop=1;jettySize=auto;html=1;exitX=0;exitY=0.5;exitDx=0;exitDy=0;entryX=1;entryY=0.5;entryDx=0;entryDy=0;strokeColor=default;align=center;verticalAlign=middle;fontFamily=Helvetica;fontSize=11;fontColor=default;labelBackgroundColor=default;endArrow=none;endFill=0;" edge="1" parent="1" source="HoAKC4LdOyhYHKw9ibHR-2" target="HoAKC4LdOyhYHKw9ibHR-15">
          <mxGeometry relative="1" as="geometry" />
        </mxCell>
        <mxCell id="HoAKC4LdOyhYHKw9ibHR-28" style="edgeStyle=none;shape=connector;rounded=0;orthogonalLoop=1;jettySize=auto;html=1;exitX=1;exitY=0.5;exitDx=0;exitDy=0;entryX=0;entryY=0.5;entryDx=0;entryDy=0;strokeColor=default;align=center;verticalAlign=middle;fontFamily=Helvetica;fontSize=11;fontColor=default;labelBackgroundColor=default;endArrow=none;endFill=0;startArrow=ERoneToMany;startFill=0;" edge="1" parent="1" source="HoAKC4LdOyhYHKw9ibHR-2" target="HoAKC4LdOyhYHKw9ibHR-27">
          <mxGeometry relative="1" as="geometry" />
        </mxCell>
        <mxCell id="HoAKC4LdOyhYHKw9ibHR-53" style="edgeStyle=none;shape=connector;rounded=0;orthogonalLoop=1;jettySize=auto;html=1;exitX=0.5;exitY=1;exitDx=0;exitDy=0;entryX=0.5;entryY=0;entryDx=0;entryDy=0;strokeColor=default;align=center;verticalAlign=middle;fontFamily=Helvetica;fontSize=11;fontColor=default;labelBackgroundColor=default;endArrow=none;endFill=0;startArrow=ERzeroToMany;startFill=0;" edge="1" parent="1" source="HoAKC4LdOyhYHKw9ibHR-2" target="HoAKC4LdOyhYHKw9ibHR-52">
          <mxGeometry relative="1" as="geometry" />
        </mxCell>
        <mxCell id="HoAKC4LdOyhYHKw9ibHR-2" value="Writer" style="whiteSpace=wrap;html=1;align=center;" vertex="1" parent="1">
          <mxGeometry x="190" y="150" width="100" height="40" as="geometry" />
        </mxCell>
        <mxCell id="HoAKC4LdOyhYHKw9ibHR-17" style="edgeStyle=none;shape=connector;rounded=0;orthogonalLoop=1;jettySize=auto;html=1;exitX=0.25;exitY=1;exitDx=0;exitDy=0;strokeColor=default;align=center;verticalAlign=middle;fontFamily=Helvetica;fontSize=11;fontColor=default;labelBackgroundColor=default;endArrow=none;endFill=0;entryX=0.5;entryY=1;entryDx=0;entryDy=0;" edge="1" parent="1" source="HoAKC4LdOyhYHKw9ibHR-3" target="HoAKC4LdOyhYHKw9ibHR-18">
          <mxGeometry relative="1" as="geometry">
            <mxPoint x="190" y="355" as="targetPoint" />
          </mxGeometry>
        </mxCell>
        <mxCell id="HoAKC4LdOyhYHKw9ibHR-23" value="" style="edgeStyle=none;shape=connector;rounded=0;orthogonalLoop=1;jettySize=auto;html=1;strokeColor=default;align=center;verticalAlign=middle;fontFamily=Helvetica;fontSize=11;fontColor=default;labelBackgroundColor=default;endArrow=none;endFill=0;entryX=0.5;entryY=1;entryDx=0;entryDy=0;" edge="1" parent="1" source="HoAKC4LdOyhYHKw9ibHR-3" target="HoAKC4LdOyhYHKw9ibHR-22">
          <mxGeometry relative="1" as="geometry">
            <mxPoint x="330" y="335" as="targetPoint" />
          </mxGeometry>
        </mxCell>
        <mxCell id="HoAKC4LdOyhYHKw9ibHR-26" style="edgeStyle=none;shape=connector;rounded=0;orthogonalLoop=1;jettySize=auto;html=1;exitX=0.5;exitY=1;exitDx=0;exitDy=0;entryX=0;entryY=0;entryDx=0;entryDy=0;strokeColor=default;align=center;verticalAlign=middle;fontFamily=Helvetica;fontSize=11;fontColor=default;labelBackgroundColor=default;endArrow=none;endFill=0;" edge="1" parent="1" source="HoAKC4LdOyhYHKw9ibHR-3" target="HoAKC4LdOyhYHKw9ibHR-25">
          <mxGeometry relative="1" as="geometry">
            <Array as="points" />
          </mxGeometry>
        </mxCell>
        <mxCell id="HoAKC4LdOyhYHKw9ibHR-3" value="Publisher" style="whiteSpace=wrap;html=1;align=center;" vertex="1" parent="1">
          <mxGeometry x="190" y="385" width="100" height="40" as="geometry" />
        </mxCell>
        <mxCell id="HoAKC4LdOyhYHKw9ibHR-33" style="edgeStyle=none;shape=connector;rounded=0;orthogonalLoop=1;jettySize=auto;html=1;exitX=0.5;exitY=0;exitDx=0;exitDy=0;entryX=0.5;entryY=1;entryDx=0;entryDy=0;strokeColor=default;align=center;verticalAlign=middle;fontFamily=Helvetica;fontSize=11;fontColor=default;labelBackgroundColor=default;endArrow=none;endFill=0;" edge="1" parent="1" source="HoAKC4LdOyhYHKw9ibHR-4" target="HoAKC4LdOyhYHKw9ibHR-31">
          <mxGeometry relative="1" as="geometry" />
        </mxCell>
        <mxCell id="HoAKC4LdOyhYHKw9ibHR-37" style="edgeStyle=none;shape=connector;rounded=0;orthogonalLoop=1;jettySize=auto;html=1;exitX=1;exitY=0.5;exitDx=0;exitDy=0;entryX=0;entryY=0.5;entryDx=0;entryDy=0;strokeColor=default;align=center;verticalAlign=middle;fontFamily=Helvetica;fontSize=11;fontColor=default;labelBackgroundColor=default;endArrow=none;endFill=0;" edge="1" parent="1" source="HoAKC4LdOyhYHKw9ibHR-4" target="HoAKC4LdOyhYHKw9ibHR-36">
          <mxGeometry relative="1" as="geometry" />
        </mxCell>
        <mxCell id="HoAKC4LdOyhYHKw9ibHR-41" style="edgeStyle=none;shape=connector;rounded=0;orthogonalLoop=1;jettySize=auto;html=1;entryX=0.5;entryY=0;entryDx=0;entryDy=0;strokeColor=default;align=center;verticalAlign=middle;fontFamily=Helvetica;fontSize=11;fontColor=default;labelBackgroundColor=default;endArrow=none;endFill=0;exitX=0.5;exitY=1;exitDx=0;exitDy=0;startArrow=ERoneToMany;startFill=0;" edge="1" parent="1" source="HoAKC4LdOyhYHKw9ibHR-4" target="HoAKC4LdOyhYHKw9ibHR-40">
          <mxGeometry relative="1" as="geometry">
            <mxPoint x="560" y="200" as="sourcePoint" />
          </mxGeometry>
        </mxCell>
        <mxCell id="HoAKC4LdOyhYHKw9ibHR-4" value="Work" style="whiteSpace=wrap;html=1;align=center;" vertex="1" parent="1">
          <mxGeometry x="510" y="150" width="100" height="40" as="geometry" />
        </mxCell>
        <mxCell id="HoAKC4LdOyhYHKw9ibHR-46" style="edgeStyle=none;shape=connector;rounded=0;orthogonalLoop=1;jettySize=auto;html=1;exitX=1;exitY=0.5;exitDx=0;exitDy=0;entryX=0;entryY=0.5;entryDx=0;entryDy=0;strokeColor=default;align=center;verticalAlign=middle;fontFamily=Helvetica;fontSize=11;fontColor=default;labelBackgroundColor=default;endArrow=none;endFill=0;" edge="1" parent="1" source="HoAKC4LdOyhYHKw9ibHR-5" target="HoAKC4LdOyhYHKw9ibHR-44">
          <mxGeometry relative="1" as="geometry" />
        </mxCell>
        <mxCell id="HoAKC4LdOyhYHKw9ibHR-47" style="edgeStyle=none;shape=connector;rounded=0;orthogonalLoop=1;jettySize=auto;html=1;exitX=1;exitY=0.5;exitDx=0;exitDy=0;entryX=0;entryY=0.5;entryDx=0;entryDy=0;strokeColor=default;align=center;verticalAlign=middle;fontFamily=Helvetica;fontSize=11;fontColor=default;labelBackgroundColor=default;endArrow=none;endFill=0;" edge="1" parent="1" source="HoAKC4LdOyhYHKw9ibHR-5" target="HoAKC4LdOyhYHKw9ibHR-45">
          <mxGeometry relative="1" as="geometry" />
        </mxCell>
        <mxCell id="HoAKC4LdOyhYHKw9ibHR-5" value="Concert" style="whiteSpace=wrap;html=1;align=center;" vertex="1" parent="1">
          <mxGeometry x="510" y="310" width="100" height="40" as="geometry" />
        </mxCell>
        <mxCell id="HoAKC4LdOyhYHKw9ibHR-6" value="&lt;u&gt;number&lt;/u&gt;" style="ellipse;whiteSpace=wrap;html=1;align=center;" vertex="1" parent="1">
          <mxGeometry x="10" y="100" width="70" height="28" as="geometry" />
        </mxCell>
        <mxCell id="HoAKC4LdOyhYHKw9ibHR-11" value="firstname" style="ellipse;whiteSpace=wrap;html=1;align=center;fontFamily=Helvetica;fontSize=11;fontColor=default;labelBackgroundColor=default;" vertex="1" parent="1">
          <mxGeometry x="110" y="90" width="70" height="30" as="geometry" />
        </mxCell>
        <mxCell id="HoAKC4LdOyhYHKw9ibHR-13" value="lastname" style="ellipse;whiteSpace=wrap;html=1;align=center;fontFamily=Helvetica;fontSize=11;fontColor=default;labelBackgroundColor=default;" vertex="1" parent="1">
          <mxGeometry x="230" y="90" width="70" height="30" as="geometry" />
        </mxCell>
        <mxCell id="HoAKC4LdOyhYHKw9ibHR-15" value="address" style="ellipse;whiteSpace=wrap;html=1;align=center;fontFamily=Helvetica;fontSize=11;fontColor=default;labelBackgroundColor=default;" vertex="1" parent="1">
          <mxGeometry x="60" y="160" width="70" height="30" as="geometry" />
        </mxCell>
        <mxCell id="HoAKC4LdOyhYHKw9ibHR-18" value="&lt;u&gt;code&lt;/u&gt;" style="ellipse;whiteSpace=wrap;html=1;align=center;fontFamily=Helvetica;fontSize=11;fontColor=default;labelBackgroundColor=default;" vertex="1" parent="1">
          <mxGeometry x="120" y="450" width="70" height="20" as="geometry" />
        </mxCell>
        <mxCell id="HoAKC4LdOyhYHKw9ibHR-22" value="name" style="ellipse;whiteSpace=wrap;html=1;" vertex="1" parent="1">
          <mxGeometry x="225" y="450" width="55" height="30" as="geometry" />
        </mxCell>
        <mxCell id="HoAKC4LdOyhYHKw9ibHR-25" value="address" style="ellipse;whiteSpace=wrap;html=1;align=center;fontFamily=Helvetica;fontSize=11;fontColor=default;labelBackgroundColor=default;" vertex="1" parent="1">
          <mxGeometry x="330" y="450" width="70" height="30" as="geometry" />
        </mxCell>
        <mxCell id="HoAKC4LdOyhYHKw9ibHR-29" style="edgeStyle=none;shape=connector;rounded=0;orthogonalLoop=1;jettySize=auto;html=1;exitX=1;exitY=0.5;exitDx=0;exitDy=0;entryX=0;entryY=0.5;entryDx=0;entryDy=0;strokeColor=default;align=center;verticalAlign=middle;fontFamily=Helvetica;fontSize=11;fontColor=default;labelBackgroundColor=default;endArrow=ERzeroToMany;endFill=0;" edge="1" parent="1" source="HoAKC4LdOyhYHKw9ibHR-27" target="HoAKC4LdOyhYHKw9ibHR-4">
          <mxGeometry relative="1" as="geometry" />
        </mxCell>
        <mxCell id="HoAKC4LdOyhYHKw9ibHR-32" style="edgeStyle=none;shape=connector;rounded=0;orthogonalLoop=1;jettySize=auto;html=1;exitX=0.5;exitY=0;exitDx=0;exitDy=0;entryX=0.5;entryY=1;entryDx=0;entryDy=0;strokeColor=default;align=center;verticalAlign=middle;fontFamily=Helvetica;fontSize=11;fontColor=default;labelBackgroundColor=default;endArrow=none;endFill=0;" edge="1" parent="1" source="HoAKC4LdOyhYHKw9ibHR-27" target="HoAKC4LdOyhYHKw9ibHR-30">
          <mxGeometry relative="1" as="geometry" />
        </mxCell>
        <mxCell id="HoAKC4LdOyhYHKw9ibHR-27" value="writes" style="shape=rhombus;perimeter=rhombusPerimeter;whiteSpace=wrap;html=1;align=center;fontFamily=Helvetica;fontSize=11;fontColor=default;labelBackgroundColor=default;" vertex="1" parent="1">
          <mxGeometry x="350" y="150" width="90" height="40" as="geometry" />
        </mxCell>
        <mxCell id="HoAKC4LdOyhYHKw9ibHR-30" value="percentage" style="ellipse;whiteSpace=wrap;html=1;align=center;fontFamily=Helvetica;fontSize=11;fontColor=default;labelBackgroundColor=default;" vertex="1" parent="1">
          <mxGeometry x="375" y="100" width="65" height="28" as="geometry" />
        </mxCell>
        <mxCell id="HoAKC4LdOyhYHKw9ibHR-31" value="&lt;u&gt;title&lt;/u&gt;" style="ellipse;whiteSpace=wrap;html=1;align=center;fontFamily=Helvetica;fontSize=11;fontColor=default;labelBackgroundColor=default;" vertex="1" parent="1">
          <mxGeometry x="570" y="100" width="60" height="20" as="geometry" />
        </mxCell>
        <mxCell id="HoAKC4LdOyhYHKw9ibHR-34" value="duration" style="ellipse;whiteSpace=wrap;html=1;align=center;fontFamily=Helvetica;fontSize=11;fontColor=default;labelBackgroundColor=default;" vertex="1" parent="1">
          <mxGeometry x="640" y="104" width="70" height="20" as="geometry" />
        </mxCell>
        <mxCell id="HoAKC4LdOyhYHKw9ibHR-35" style="edgeStyle=none;shape=connector;rounded=0;orthogonalLoop=1;jettySize=auto;html=1;exitX=0.5;exitY=0;exitDx=0;exitDy=0;entryX=0.438;entryY=1.005;entryDx=0;entryDy=0;entryPerimeter=0;strokeColor=default;align=center;verticalAlign=middle;fontFamily=Helvetica;fontSize=11;fontColor=default;labelBackgroundColor=default;endArrow=none;endFill=0;" edge="1" parent="1" source="HoAKC4LdOyhYHKw9ibHR-4" target="HoAKC4LdOyhYHKw9ibHR-34">
          <mxGeometry relative="1" as="geometry" />
        </mxCell>
        <mxCell id="HoAKC4LdOyhYHKw9ibHR-36" value="description" style="ellipse;whiteSpace=wrap;html=1;align=center;fontFamily=Helvetica;fontSize=11;fontColor=default;labelBackgroundColor=default;" vertex="1" parent="1">
          <mxGeometry x="670" y="140" width="70" height="20" as="geometry" />
        </mxCell>
        <mxCell id="HoAKC4LdOyhYHKw9ibHR-42" style="edgeStyle=none;shape=connector;rounded=0;orthogonalLoop=1;jettySize=auto;html=1;exitX=0.5;exitY=1;exitDx=0;exitDy=0;entryX=0.5;entryY=0;entryDx=0;entryDy=0;strokeColor=default;align=center;verticalAlign=middle;fontFamily=Helvetica;fontSize=11;fontColor=default;labelBackgroundColor=default;endArrow=ERzeroToMany;endFill=0;" edge="1" parent="1" source="HoAKC4LdOyhYHKw9ibHR-40" target="HoAKC4LdOyhYHKw9ibHR-5">
          <mxGeometry relative="1" as="geometry" />
        </mxCell>
        <mxCell id="HoAKC4LdOyhYHKw9ibHR-50" style="edgeStyle=none;shape=connector;rounded=0;orthogonalLoop=1;jettySize=auto;html=1;exitX=1;exitY=0.5;exitDx=0;exitDy=0;entryX=0;entryY=0.5;entryDx=0;entryDy=0;strokeColor=default;align=center;verticalAlign=middle;fontFamily=Helvetica;fontSize=11;fontColor=default;labelBackgroundColor=default;endArrow=none;endFill=0;" edge="1" parent="1" source="HoAKC4LdOyhYHKw9ibHR-40" target="HoAKC4LdOyhYHKw9ibHR-49">
          <mxGeometry relative="1" as="geometry" />
        </mxCell>
        <mxCell id="HoAKC4LdOyhYHKw9ibHR-40" value="is performed" style="shape=rhombus;perimeter=rhombusPerimeter;whiteSpace=wrap;html=1;align=center;fontFamily=Helvetica;fontSize=11;fontColor=default;labelBackgroundColor=default;" vertex="1" parent="1">
          <mxGeometry x="515" y="230" width="90" height="40" as="geometry" />
        </mxCell>
        <mxCell id="HoAKC4LdOyhYHKw9ibHR-44" value="date" style="ellipse;whiteSpace=wrap;html=1;align=center;fontFamily=Helvetica;fontSize=11;fontColor=default;labelBackgroundColor=default;" vertex="1" parent="1">
          <mxGeometry x="645" y="300" width="60" height="30" as="geometry" />
        </mxCell>
        <mxCell id="HoAKC4LdOyhYHKw9ibHR-45" value="venue" style="ellipse;whiteSpace=wrap;html=1;align=center;fontFamily=Helvetica;fontSize=11;fontColor=default;labelBackgroundColor=default;" vertex="1" parent="1">
          <mxGeometry x="645" y="340" width="60" height="30" as="geometry" />
        </mxCell>
        <mxCell id="HoAKC4LdOyhYHKw9ibHR-49" value="act" style="ellipse;whiteSpace=wrap;html=1;align=center;fontFamily=Helvetica;fontSize=11;fontColor=default;labelBackgroundColor=default;" vertex="1" parent="1">
          <mxGeometry x="630" y="230" width="70" height="20" as="geometry" />
        </mxCell>
        <mxCell id="HoAKC4LdOyhYHKw9ibHR-51" style="edgeStyle=none;shape=connector;rounded=0;orthogonalLoop=1;jettySize=auto;html=1;exitX=1;exitY=0.5;exitDx=0;exitDy=0;strokeColor=default;align=center;verticalAlign=middle;fontFamily=Helvetica;fontSize=11;fontColor=default;labelBackgroundColor=default;endArrow=none;endFill=0;" edge="1" parent="1" source="HoAKC4LdOyhYHKw9ibHR-25" target="HoAKC4LdOyhYHKw9ibHR-25">
          <mxGeometry relative="1" as="geometry" />
        </mxCell>
        <mxCell id="HoAKC4LdOyhYHKw9ibHR-54" style="edgeStyle=none;shape=connector;rounded=0;orthogonalLoop=1;jettySize=auto;html=1;exitX=0.5;exitY=1;exitDx=0;exitDy=0;strokeColor=default;align=center;verticalAlign=middle;fontFamily=Helvetica;fontSize=11;fontColor=default;labelBackgroundColor=default;endArrow=ERzeroToOne;endFill=0;" edge="1" parent="1" source="HoAKC4LdOyhYHKw9ibHR-52" target="HoAKC4LdOyhYHKw9ibHR-3">
          <mxGeometry relative="1" as="geometry" />
        </mxCell>
        <mxCell id="HoAKC4LdOyhYHKw9ibHR-52" value="signs up for" style="shape=rhombus;perimeter=rhombusPerimeter;whiteSpace=wrap;html=1;align=center;fontFamily=Helvetica;fontSize=11;fontColor=default;labelBackgroundColor=default;" vertex="1" parent="1">
          <mxGeometry x="195" y="280" width="90" height="40" as="geometry" />
        </mxCell>
      </root>
    </mxGraphModel>
  </diagram>
</mxfile>
